<svg width="32" height="32" viewBox="0 0 32 32" fill="none" xmlns="http://www.w3.org/2000/svg">
<path d="M5.91991 17.9875L2.14991 14.2175C1.69991 13.7675 2.01991 12.9875 2.65991 12.9875H5.91991V17.9875Z" fill="url(#paint0_radial_6894_5260)"/>
<path d="M5.91991 17.9875L2.14991 14.2175C1.69991 13.7675 2.01991 12.9875 2.65991 12.9875H5.91991V17.9875Z" fill="url(#paint1_linear_6894_5260)" fill-opacity="0.75" style="mix-blend-mode:multiply"/>
<path d="M5.91991 17.9875L2.14991 14.2175C1.69991 13.7675 2.01991 12.9875 2.65991 12.9875H5.91991V17.9875Z" fill="url(#paint2_linear_6894_5260)" fill-opacity="0.75" style="mix-blend-mode:multiply"/>
<path d="M5.91991 17.9875L2.14991 14.2175C1.69991 13.7675 2.01991 12.9875 2.65991 12.9875H5.91991V17.9875Z" fill="url(#paint3_radial_6894_5260)" fill-opacity="0.75" style="mix-blend-mode:multiply"/>
<path d="M5.91991 17.9875L2.14991 14.2175C1.69991 13.7675 2.01991 12.9875 2.65991 12.9875H5.91991V17.9875Z" fill="url(#paint4_radial_6894_5260)"/>
<path d="M25.9299 17.9875L29.6999 14.2175C30.1499 13.7675 29.8299 12.9875 29.1899 12.9875H25.9299V17.9875Z" fill="url(#paint5_radial_6894_5260)"/>
<path d="M25.9299 17.9875L29.6999 14.2175C30.1499 13.7675 29.8299 12.9875 29.1899 12.9875H25.9299V17.9875Z" fill="url(#paint6_linear_6894_5260)" fill-opacity="0.75" style="mix-blend-mode:multiply"/>
<path d="M25.9299 17.9875L29.6999 14.2175C30.1499 13.7675 29.8299 12.9875 29.1899 12.9875H25.9299V17.9875Z" fill="url(#paint7_linear_6894_5260)" fill-opacity="0.75" style="mix-blend-mode:multiply"/>
<path d="M25.9299 17.9875L29.6999 14.2175C30.1499 13.7675 29.8299 12.9875 29.1899 12.9875H25.9299V17.9875Z" fill="url(#paint8_radial_6894_5260)"/>
<path d="M25.9767 10.4651C25.2683 5.60649 20.9871 1.98755 15.9358 1.98755C10.8845 1.98755 6.61354 5.60649 5.89486 10.4651L3.95444 27.5201C3.7799 28.6598 4.54991 29.8094 5.73059 29.9594C6.75727 30.0894 7.30481 30.0523 8.61557 28.9997C9.96052 27.6901 12.1473 27.6901 13.4923 28.9997C14.8372 30.3093 17.0241 30.3093 18.369 28.9997C19.714 27.6901 21.9008 27.6901 23.2458 28.9997C23.9644 29.6995 24.909 30.0194 25.8433 29.9794C27.1369 29.9194 28.0917 28.7497 27.9069 27.5001L25.9767 10.4651Z" fill="url(#paint9_radial_6894_5260)"/>
<path d="M25.9767 10.4651C25.2683 5.60649 20.9871 1.98755 15.9358 1.98755C10.8845 1.98755 6.61354 5.60649 5.89486 10.4651L3.95444 27.5201C3.7799 28.6598 4.54991 29.8094 5.73059 29.9594C6.75727 30.0894 7.30481 30.0523 8.61557 28.9997C9.96052 27.6901 12.1473 27.6901 13.4923 28.9997C14.8372 30.3093 17.0241 30.3093 18.369 28.9997C19.714 27.6901 21.9008 27.6901 23.2458 28.9997C23.9644 29.6995 24.909 30.0194 25.8433 29.9794C27.1369 29.9194 28.0917 28.7497 27.9069 27.5001L25.9767 10.4651Z" fill="url(#paint10_radial_6894_5260)"/>
<path d="M25.9767 10.4651C25.2683 5.60649 20.9871 1.98755 15.9358 1.98755C10.8845 1.98755 6.61354 5.60649 5.89486 10.4651L3.95444 27.5201C3.7799 28.6598 4.54991 29.8094 5.73059 29.9594C6.75727 30.0894 7.30481 30.0523 8.61557 28.9997C9.96052 27.6901 12.1473 27.6901 13.4923 28.9997C14.8372 30.3093 17.0241 30.3093 18.369 28.9997C19.714 27.6901 21.9008 27.6901 23.2458 28.9997C23.9644 29.6995 24.909 30.0194 25.8433 29.9794C27.1369 29.9194 28.0917 28.7497 27.9069 27.5001L25.9767 10.4651Z" fill="url(#paint11_radial_6894_5260)"/>
<path d="M25.9767 10.4651C25.2683 5.60649 20.9871 1.98755 15.9358 1.98755C10.8845 1.98755 6.61354 5.60649 5.89486 10.4651L3.95444 27.5201C3.7799 28.6598 4.54991 29.8094 5.73059 29.9594C6.75727 30.0894 7.30481 30.0523 8.61557 28.9997C9.96052 27.6901 12.1473 27.6901 13.4923 28.9997C14.8372 30.3093 17.0241 30.3093 18.369 28.9997C19.714 27.6901 21.9008 27.6901 23.2458 28.9997C23.9644 29.6995 24.909 30.0194 25.8433 29.9794C27.1369 29.9194 28.0917 28.7497 27.9069 27.5001L25.9767 10.4651Z" fill="url(#paint12_radial_6894_5260)" fill-opacity="0.75" style="mix-blend-mode:multiply"/>
<path d="M25.9767 10.4651C25.2683 5.60649 20.9871 1.98755 15.9358 1.98755C10.8845 1.98755 6.61354 5.60649 5.89486 10.4651L3.95444 27.5201C3.7799 28.6598 4.54991 29.8094 5.73059 29.9594C6.75727 30.0894 7.30481 30.0523 8.61557 28.9997C9.96052 27.6901 12.1473 27.6901 13.4923 28.9997C14.8372 30.3093 17.0241 30.3093 18.369 28.9997C19.714 27.6901 21.9008 27.6901 23.2458 28.9997C23.9644 29.6995 24.909 30.0194 25.8433 29.9794C27.1369 29.9194 28.0917 28.7497 27.9069 27.5001L25.9767 10.4651Z" fill="url(#paint13_linear_6894_5260)"/>
<path d="M25.9767 10.4651C25.2683 5.60649 20.9871 1.98755 15.9358 1.98755C10.8845 1.98755 6.61354 5.60649 5.89486 10.4651L3.95444 27.5201C3.7799 28.6598 4.54991 29.8094 5.73059 29.9594C6.75727 30.0894 7.30481 30.0523 8.61557 28.9997C9.96052 27.6901 12.1473 27.6901 13.4923 28.9997C14.8372 30.3093 17.0241 30.3093 18.369 28.9997C19.714 27.6901 21.9008 27.6901 23.2458 28.9997C23.9644 29.6995 24.909 30.0194 25.8433 29.9794C27.1369 29.9194 28.0917 28.7497 27.9069 27.5001L25.9767 10.4651Z" fill="url(#paint14_radial_6894_5260)"/>
<path d="M25.9767 10.4651C25.2683 5.60649 20.9871 1.98755 15.9358 1.98755C10.8845 1.98755 6.61354 5.60649 5.89486 10.4651L3.95444 27.5201C3.7799 28.6598 4.54991 29.8094 5.73059 29.9594C6.75727 30.0894 7.30481 30.0523 8.61557 28.9997C9.96052 27.6901 12.1473 27.6901 13.4923 28.9997C14.8372 30.3093 17.0241 30.3093 18.369 28.9997C19.714 27.6901 21.9008 27.6901 23.2458 28.9997C23.9644 29.6995 24.909 30.0194 25.8433 29.9794C27.1369 29.9194 28.0917 28.7497 27.9069 27.5001L25.9767 10.4651Z" fill="url(#paint15_radial_6894_5260)"/>
<path d="M25.9767 10.4651C25.2683 5.60649 20.9871 1.98755 15.9358 1.98755C10.8845 1.98755 6.61354 5.60649 5.89486 10.4651L3.95444 27.5201C3.7799 28.6598 4.54991 29.8094 5.73059 29.9594C6.75727 30.0894 7.30481 30.0523 8.61557 28.9997C9.96052 27.6901 12.1473 27.6901 13.4923 28.9997C14.8372 30.3093 17.0241 30.3093 18.369 28.9997C19.714 27.6901 21.9008 27.6901 23.2458 28.9997C23.9644 29.6995 24.909 30.0194 25.8433 29.9794C27.1369 29.9194 28.0917 28.7497 27.9069 27.5001L25.9767 10.4651Z" fill="url(#paint16_radial_6894_5260)"/>
<path d="M25.9767 10.4651C25.2683 5.60649 20.9871 1.98755 15.9358 1.98755C10.8845 1.98755 6.61354 5.60649 5.89486 10.4651L3.95444 27.5201C3.7799 28.6598 4.54991 29.8094 5.73059 29.9594C6.75727 30.0894 7.30481 30.0523 8.61557 28.9997C9.96052 27.6901 12.1473 27.6901 13.4923 28.9997C14.8372 30.3093 17.0241 30.3093 18.369 28.9997C19.714 27.6901 21.9008 27.6901 23.2458 28.9997C23.9644 29.6995 24.909 30.0194 25.8433 29.9794C27.1369 29.9194 28.0917 28.7497 27.9069 27.5001L25.9767 10.4651Z" fill="url(#paint17_radial_6894_5260)"/>
<path d="M25.9767 10.4651C25.2683 5.60649 20.9871 1.98755 15.9358 1.98755C10.8845 1.98755 6.61354 5.60649 5.89486 10.4651L3.95444 27.5201C3.7799 28.6598 4.54991 29.8094 5.73059 29.9594C6.75727 30.0894 7.30481 30.0523 8.61557 28.9997C9.96052 27.6901 12.1473 27.6901 13.4923 28.9997C14.8372 30.3093 17.0241 30.3093 18.369 28.9997C19.714 27.6901 21.9008 27.6901 23.2458 28.9997C23.9644 29.6995 24.909 30.0194 25.8433 29.9794C27.1369 29.9194 28.0917 28.7497 27.9069 27.5001L25.9767 10.4651Z" fill="url(#paint18_radial_6894_5260)"/>
<path d="M25.9767 10.4651C25.2683 5.60649 20.9871 1.98755 15.9358 1.98755C10.8845 1.98755 6.61354 5.60649 5.89486 10.4651L3.95444 27.5201C3.7799 28.6598 4.54991 29.8094 5.73059 29.9594C6.75727 30.0894 7.30481 30.0523 8.61557 28.9997C9.96052 27.6901 12.1473 27.6901 13.4923 28.9997C14.8372 30.3093 17.0241 30.3093 18.369 28.9997C19.714 27.6901 21.9008 27.6901 23.2458 28.9997C23.9644 29.6995 24.909 30.0194 25.8433 29.9794C27.1369 29.9194 28.0917 28.7497 27.9069 27.5001L25.9767 10.4651Z" fill="url(#paint19_radial_6894_5260)"/>
<path d="M25.9767 10.4651C25.2683 5.60649 20.9871 1.98755 15.9358 1.98755C10.8845 1.98755 6.61354 5.60649 5.89486 10.4651L3.95444 27.5201C3.7799 28.6598 4.54991 29.8094 5.73059 29.9594C6.75727 30.0894 7.30481 30.0523 8.61557 28.9997C9.96052 27.6901 12.1473 27.6901 13.4923 28.9997C14.8372 30.3093 17.0241 30.3093 18.369 28.9997C19.714 27.6901 21.9008 27.6901 23.2458 28.9997C23.9644 29.6995 24.909 30.0194 25.8433 29.9794C27.1369 29.9194 28.0917 28.7497 27.9069 27.5001L25.9767 10.4651Z" fill="url(#paint20_radial_6894_5260)" fill-opacity="0.5"/>
<path d="M25.9767 10.4651C25.2683 5.60649 20.9871 1.98755 15.9358 1.98755C10.8845 1.98755 6.61354 5.60649 5.89486 10.4651L3.95444 27.5201C3.7799 28.6598 4.54991 29.8094 5.73059 29.9594C6.75727 30.0894 7.30481 30.0523 8.61557 28.9997C9.96052 27.6901 12.1473 27.6901 13.4923 28.9997C14.8372 30.3093 17.0241 30.3093 18.369 28.9997C19.714 27.6901 21.9008 27.6901 23.2458 28.9997C23.9644 29.6995 24.909 30.0194 25.8433 29.9794C27.1369 29.9194 28.0917 28.7497 27.9069 27.5001L25.9767 10.4651Z" fill="url(#paint21_radial_6894_5260)" fill-opacity="0.5"/>
<path d="M25.9767 10.4651C25.2683 5.60649 20.9871 1.98755 15.9358 1.98755C10.8845 1.98755 6.61354 5.60649 5.89486 10.4651L3.95444 27.5201C3.7799 28.6598 4.54991 29.8094 5.73059 29.9594C6.75727 30.0894 7.30481 30.0523 8.61557 28.9997C9.96052 27.6901 12.1473 27.6901 13.4923 28.9997C14.8372 30.3093 17.0241 30.3093 18.369 28.9997C19.714 27.6901 21.9008 27.6901 23.2458 28.9997C23.9644 29.6995 24.909 30.0194 25.8433 29.9794C27.1369 29.9194 28.0917 28.7497 27.9069 27.5001L25.9767 10.4651Z" fill="url(#paint22_radial_6894_5260)"/>
<path d="M25.9767 10.4651C25.2683 5.60649 20.9871 1.98755 15.9358 1.98755C10.8845 1.98755 6.61354 5.60649 5.89486 10.4651L3.95444 27.5201C3.7799 28.6598 4.54991 29.8094 5.73059 29.9594C6.75727 30.0894 7.30481 30.0523 8.61557 28.9997C9.96052 27.6901 12.1473 27.6901 13.4923 28.9997C14.8372 30.3093 17.0241 30.3093 18.369 28.9997C19.714 27.6901 21.9008 27.6901 23.2458 28.9997C23.9644 29.6995 24.909 30.0194 25.8433 29.9794C27.1369 29.9194 28.0917 28.7497 27.9069 27.5001L25.9767 10.4651Z" fill="url(#paint23_radial_6894_5260)" fill-opacity="0.2"/>
<path d="M25.9767 10.4651C25.2683 5.60649 20.9871 1.98755 15.9358 1.98755C10.8845 1.98755 6.61354 5.60649 5.89486 10.4651L3.95444 27.5201C3.7799 28.6598 4.54991 29.8094 5.73059 29.9594C6.75727 30.0894 7.30481 30.0523 8.61557 28.9997C9.96052 27.6901 12.1473 27.6901 13.4923 28.9997C14.8372 30.3093 17.0241 30.3093 18.369 28.9997C19.714 27.6901 21.9008 27.6901 23.2458 28.9997C23.9644 29.6995 24.909 30.0194 25.8433 29.9794C27.1369 29.9194 28.0917 28.7497 27.9069 27.5001L25.9767 10.4651Z" fill="url(#paint24_radial_6894_5260)"/>
<path d="M15.989 16.9996C10.9807 16.9996 10.9807 11.9913 10.9807 11.9913H20.9973C20.9973 11.9913 20.9973 16.9996 15.989 16.9996Z" fill="url(#paint25_radial_6894_5260)"/>
<path d="M16.0009 19.1461C19.0059 19.1461 19.4853 16.1412 19.5783 15.3899C19.6498 14.7818 19.3279 14.4741 18.9773 14.2666C18.6267 14.0591 17.575 13.866 16.0009 13.866C14.4269 13.866 13.3823 14.0591 13.0246 14.2666C12.6668 14.4741 12.3449 14.7818 12.4236 15.3899C12.5166 16.1412 12.996 19.1461 16.0009 19.1461Z" fill="#FF277C"/>
<path d="M16.0009 19.1461C19.0059 19.1461 19.4853 16.1412 19.5783 15.3899C19.6498 14.7818 19.3279 14.4741 18.9773 14.2666C18.6267 14.0591 17.575 13.866 16.0009 13.866C14.4269 13.866 13.3823 14.0591 13.0246 14.2666C12.6668 14.4741 12.3449 14.7818 12.4236 15.3899C12.5166 16.1412 12.996 19.1461 16.0009 19.1461Z" fill="url(#paint26_radial_6894_5260)"/>
<path d="M16.0009 19.1461C19.0059 19.1461 19.4853 16.1412 19.5783 15.3899C19.6498 14.7818 19.3279 14.4741 18.9773 14.2666C18.6267 14.0591 17.575 13.866 16.0009 13.866C14.4269 13.866 13.3823 14.0591 13.0246 14.2666C12.6668 14.4741 12.3449 14.7818 12.4236 15.3899C12.5166 16.1412 12.996 19.1461 16.0009 19.1461Z" fill="url(#paint27_linear_6894_5260)"/>
<path d="M16.0009 19.1461C19.0059 19.1461 19.4853 16.1412 19.5783 15.3899C19.6498 14.7818 19.3279 14.4741 18.9773 14.2666C18.6267 14.0591 17.575 13.866 16.0009 13.866C14.4269 13.866 13.3823 14.0591 13.0246 14.2666C12.6668 14.4741 12.3449 14.7818 12.4236 15.3899C12.5166 16.1412 12.996 19.1461 16.0009 19.1461Z" fill="url(#paint28_linear_6894_5260)"/>
<path d="M16.0009 19.1461C19.0059 19.1461 19.4853 16.1412 19.5783 15.3899C19.6498 14.7818 19.3279 14.4741 18.9773 14.2666C18.6267 14.0591 17.575 13.866 16.0009 13.866C14.4269 13.866 13.3823 14.0591 13.0246 14.2666C12.6668 14.4741 12.3449 14.7818 12.4236 15.3899C12.5166 16.1412 12.996 19.1461 16.0009 19.1461Z" fill="url(#paint29_radial_6894_5260)"/>
<path d="M16.0009 19.1461C19.0059 19.1461 19.4853 16.1412 19.5783 15.3899C19.6498 14.7818 19.3279 14.4741 18.9773 14.2666C18.6267 14.0591 17.575 13.866 16.0009 13.866C14.4269 13.866 13.3823 14.0591 13.0246 14.2666C12.6668 14.4741 12.3449 14.7818 12.4236 15.3899C12.5166 16.1412 12.996 19.1461 16.0009 19.1461Z" fill="url(#paint30_radial_6894_5260)"/>
<path d="M16.0009 19.1461C19.0059 19.1461 19.4853 16.1412 19.5783 15.3899C19.6498 14.7818 19.3279 14.4741 18.9773 14.2666C18.6267 14.0591 17.575 13.866 16.0009 13.866C14.4269 13.866 13.3823 14.0591 13.0246 14.2666C12.6668 14.4741 12.3449 14.7818 12.4236 15.3899C12.5166 16.1412 12.996 19.1461 16.0009 19.1461Z" fill="url(#paint31_radial_6894_5260)"/>
<path d="M12.0651 9.96619C11.8092 10.0941 11.498 9.99042 11.37 9.7345C11.2421 9.47859 11.3458 9.16741 11.6017 9.03945L12.7448 8.4679H14.4237C14.4233 8.66365 14.3125 8.84249 14.1373 8.93006L12.0651 9.96619Z" fill="url(#paint32_linear_6894_5260)"/>
<path d="M12.0651 6.96972C11.8092 6.84177 11.498 6.9455 11.37 7.20141C11.2421 7.45732 11.3458 7.76851 11.6017 7.89646L12.7448 8.46802H14.4237C14.4233 8.27226 14.3125 8.09343 14.1373 8.00585L12.0651 6.96972Z" fill="url(#paint33_linear_6894_5260)"/>
<path d="M19.4973 9.98197C20.3257 9.98197 20.9973 9.32039 20.9973 8.50429C20.9973 7.68819 20.3257 7.02661 19.4973 7.02661C18.6689 7.02661 17.9973 7.68819 17.9973 8.50429C17.9973 9.32039 18.6689 9.98197 19.4973 9.98197Z" fill="url(#paint34_radial_6894_5260)"/>
<defs>
<radialGradient id="paint0_radial_6894_5260" cx="0" cy="0" r="1" gradientUnits="userSpaceOnUse" gradientTransform="translate(7.68994 12.6148) rotate(103.951) scale(7.34157 8.88039)">
<stop offset="0.212753" stop-color="#F2F0F4"/>
<stop offset="0.886631" stop-color="#D1BBE0"/>
</radialGradient>
<linearGradient id="paint1_linear_6894_5260" x1="0.71032" y1="13.444" x2="5.04411" y2="14.9066" gradientUnits="userSpaceOnUse">
<stop offset="0.391986" stop-color="#D4CDCC" stop-opacity="0"/>
<stop offset="0.984375" stop-color="#D4CDCC"/>
</linearGradient>
<linearGradient id="paint2_linear_6894_5260" x1="4.25244" y1="16.4249" x2="4.25244" y2="12.4117" gradientUnits="userSpaceOnUse">
<stop offset="0.385141" stop-color="#D4CDCC" stop-opacity="0"/>
<stop offset="0.703125" stop-color="#D4CDCC" stop-opacity="0.391916"/>
<stop offset="0.917421" stop-color="#D4CDCC"/>
</linearGradient>
<radialGradient id="paint3_radial_6894_5260" cx="0" cy="0" r="1" gradientUnits="userSpaceOnUse" gradientTransform="translate(2.62399 15.2472) rotate(48.9085) scale(4.19939 1.65851)">
<stop offset="0.125" stop-color="#CCB1C9"/>
<stop offset="0.473958" stop-color="#CDB5CA" stop-opacity="0.440476"/>
<stop offset="0.697917" stop-color="#CEB7CB" stop-opacity="0.200613"/>
<stop offset="1" stop-color="#CEB9CB" stop-opacity="0"/>
</radialGradient>
<radialGradient id="paint4_radial_6894_5260" cx="0" cy="0" r="1" gradientUnits="userSpaceOnUse" gradientTransform="translate(1.51995 12.3031) rotate(39.6476) scale(3.42701 1.4832)">
<stop stop-color="#FFD099"/>
<stop offset="1" stop-color="#E5C9C5" stop-opacity="0"/>
</radialGradient>
<radialGradient id="paint5_radial_6894_5260" cx="0" cy="0" r="1" gradientUnits="userSpaceOnUse" gradientTransform="translate(31.0962 16.271) rotate(57.7788) scale(4.39571 11.2313)">
<stop stop-color="#D1BBE0"/>
<stop offset="0.885417" stop-color="#F2F0F4"/>
</radialGradient>
<linearGradient id="paint6_linear_6894_5260" x1="28.2212" y1="13.9273" x2="28.2618" y2="11.6141" gradientUnits="userSpaceOnUse">
<stop offset="0.272567" stop-color="#D4CDCC" stop-opacity="0"/>
<stop offset="0.643601" stop-color="#D4CDCC"/>
</linearGradient>
<linearGradient id="paint7_linear_6894_5260" x1="28.0962" y1="14.396" x2="29.9101" y2="16.2606" gradientUnits="userSpaceOnUse">
<stop offset="0.245336" stop-color="#D4CDCC" stop-opacity="0"/>
<stop offset="0.643601" stop-color="#D4CDCC"/>
</linearGradient>
<radialGradient id="paint8_radial_6894_5260" cx="0" cy="0" r="1" gradientUnits="userSpaceOnUse" gradientTransform="translate(29.4885 13.6772) rotate(150.018) scale(0.557892 0.633043)">
<stop stop-color="white"/>
<stop offset="0.359375" stop-color="white" stop-opacity="0.484375"/>
<stop offset="0.625" stop-color="white" stop-opacity="0.185086"/>
<stop offset="1" stop-color="white" stop-opacity="0"/>
</radialGradient>
<radialGradient id="paint9_radial_6894_5260" cx="0" cy="0" r="1" gradientUnits="userSpaceOnUse" gradientTransform="translate(23.1798 7.61478) rotate(128.033) scale(28.4041 26.7477)">
<stop offset="0.212753" stop-color="#F2F0F4"/>
<stop offset="0.886631" stop-color="#D1BBE0"/>
</radialGradient>
<radialGradient id="paint10_radial_6894_5260" cx="0" cy="0" r="1" gradientUnits="userSpaceOnUse" gradientTransform="translate(17.7399 11.5) rotate(112.86) scale(26.3848 42.7433)">
<stop offset="0.780055" stop-color="#CB9DEB" stop-opacity="0"/>
<stop offset="0.834174" stop-color="#CB9DEB" stop-opacity="0.75"/>
</radialGradient>
<radialGradient id="paint11_radial_6894_5260" cx="0" cy="0" r="1" gradientUnits="userSpaceOnUse" gradientTransform="translate(19.4274 14.125) rotate(88.6938) scale(19.1925 42.634)">
<stop offset="0.76815" stop-color="#CB9DEB" stop-opacity="0"/>
<stop offset="0.896974" stop-color="#CB9DEB" stop-opacity="0.75"/>
</radialGradient>
<radialGradient id="paint12_radial_6894_5260" cx="0" cy="0" r="1" gradientUnits="userSpaceOnUse" gradientTransform="translate(16.8048 20.9898) rotate(-97.5946) scale(22.6991 24.3922)">
<stop offset="0.677083" stop-color="#D4CDCC" stop-opacity="0"/>
<stop offset="0.984375" stop-color="#D4CDCC"/>
</radialGradient>
<linearGradient id="paint13_linear_6894_5260" x1="16" y1="17" x2="-0.699403" y2="12.5576" gradientUnits="userSpaceOnUse">
<stop stop-color="#E5C9C5" stop-opacity="0"/>
<stop offset="0.701116" stop-color="#C0BFC2"/>
</linearGradient>
<radialGradient id="paint14_radial_6894_5260" cx="0" cy="0" r="1" gradientUnits="userSpaceOnUse" gradientTransform="translate(13.7647 29.4939) rotate(96.2034) scale(6.87997 7.29932)">
<stop offset="0.0572917" stop-color="#CB9DEB"/>
<stop offset="0.291667" stop-color="#CB9DEB" stop-opacity="0.211409"/>
<stop offset="0.75" stop-color="#CB9DEB" stop-opacity="0"/>
</radialGradient>
<radialGradient id="paint15_radial_6894_5260" cx="0" cy="0" r="1" gradientUnits="userSpaceOnUse" gradientTransform="translate(11.46 28.4531) rotate(97.8739) scale(7.05489 12.2328)">
<stop offset="0.0572917" stop-color="#CB9DEB"/>
<stop offset="0.291667" stop-color="#CB9DEB" stop-opacity="0.211409"/>
<stop offset="0.75" stop-color="#CB9DEB" stop-opacity="0"/>
</radialGradient>
<radialGradient id="paint16_radial_6894_5260" cx="0" cy="0" r="1" gradientUnits="userSpaceOnUse" gradientTransform="translate(20.8274 28.1557) rotate(92.3137) scale(7.3661 10.6999)">
<stop offset="0.0572917" stop-color="#CB9DEB"/>
<stop offset="0.364583" stop-color="#CB9DEB" stop-opacity="0.211409"/>
<stop offset="0.755208" stop-color="#CB9DEB" stop-opacity="0.0895157"/>
<stop offset="1" stop-color="#CB9DEB" stop-opacity="0"/>
</radialGradient>
<radialGradient id="paint17_radial_6894_5260" cx="0" cy="0" r="1" gradientUnits="userSpaceOnUse" gradientTransform="translate(24.0242 29.2709) rotate(109.506) scale(6.47855 7.24974)">
<stop stop-color="#CB99EE"/>
<stop offset="0.380208" stop-color="#CB9DEB" stop-opacity="0.211409"/>
<stop offset="0.65625" stop-color="#CB9DEB" stop-opacity="0"/>
</radialGradient>
<radialGradient id="paint18_radial_6894_5260" cx="0" cy="0" r="1" gradientUnits="userSpaceOnUse" gradientTransform="translate(25.8355 24.7788) rotate(-113.231) scale(8.49028 5.32523)">
<stop stop-color="white" stop-opacity="0.77"/>
<stop offset="0.364583" stop-color="white" stop-opacity="0.489583"/>
<stop offset="0.651042" stop-color="white" stop-opacity="0.188647"/>
<stop offset="0.828125" stop-color="white" stop-opacity="0.0984244"/>
<stop offset="1" stop-color="white" stop-opacity="0"/>
</radialGradient>
<radialGradient id="paint19_radial_6894_5260" cx="0" cy="0" r="1" gradientUnits="userSpaceOnUse" gradientTransform="translate(24.1059 20.9515) rotate(-106.916) scale(7.46234 3.6064)">
<stop offset="0.140625" stop-color="white" stop-opacity="0.53"/>
<stop offset="0.651042" stop-color="white" stop-opacity="0.188647"/>
<stop offset="0.828125" stop-color="white" stop-opacity="0.0984244"/>
<stop offset="1" stop-color="white" stop-opacity="0"/>
</radialGradient>
<radialGradient id="paint20_radial_6894_5260" cx="0" cy="0" r="1" gradientUnits="userSpaceOnUse" gradientTransform="translate(17.4076 26.2228) rotate(-95.7743) scale(6.65039 4.08668)">
<stop stop-color="white" stop-opacity="0.62"/>
<stop offset="0.526042" stop-color="white" stop-opacity="0.260677"/>
<stop offset="0.661458" stop-color="white" stop-opacity="0.134939"/>
<stop offset="1" stop-color="white" stop-opacity="0"/>
</radialGradient>
<radialGradient id="paint21_radial_6894_5260" cx="0" cy="0" r="1" gradientUnits="userSpaceOnUse" gradientTransform="translate(7.37108 27.0406) rotate(-50.7106) scale(3.1699 2.35616)">
<stop stop-color="white" stop-opacity="0.3"/>
<stop offset="0.604167" stop-color="white" stop-opacity="0.17"/>
<stop offset="1" stop-color="white" stop-opacity="0"/>
</radialGradient>
<radialGradient id="paint22_radial_6894_5260" cx="0" cy="0" r="1" gradientUnits="userSpaceOnUse" gradientTransform="translate(18.8433 9.10141) rotate(133.698) scale(2.29057 2.56324)">
<stop stop-color="#745986"/>
<stop offset="0.479167" stop-color="#AC98B8" stop-opacity="0.479167"/>
<stop offset="1" stop-color="#DFD3E6" stop-opacity="0"/>
</radialGradient>
<radialGradient id="paint23_radial_6894_5260" cx="0" cy="0" r="1" gradientUnits="userSpaceOnUse" gradientTransform="translate(12.3662 9.24861) rotate(130.741) scale(4.90578 5.48975)">
<stop stop-color="#745986"/>
<stop offset="1" stop-color="#DFD3E6" stop-opacity="0"/>
</radialGradient>
<radialGradient id="paint24_radial_6894_5260" cx="0" cy="0" r="1" gradientUnits="userSpaceOnUse" gradientTransform="translate(14.3595 16.6323) rotate(120.041) scale(7.12815 6.12846)">
<stop stop-color="#B57FB1"/>
<stop offset="1" stop-color="#DDCAEC" stop-opacity="0"/>
</radialGradient>
<radialGradient id="paint25_radial_6894_5260" cx="0" cy="0" r="1" gradientUnits="userSpaceOnUse" gradientTransform="translate(15.989 18.1126) rotate(-90) scale(5.2478 10.4956)">
<stop stop-color="#F70A8D"/>
<stop offset="1" stop-color="#89029C"/>
</radialGradient>
<radialGradient id="paint26_radial_6894_5260" cx="0" cy="0" r="1" gradientUnits="userSpaceOnUse" gradientTransform="translate(14.9913 14.9225) rotate(-100.149) scale(6.11762 7.53145)">
<stop stop-color="#FF277F" stop-opacity="0"/>
<stop offset="0.473958" stop-color="#FF2C79" stop-opacity="0.58"/>
<stop offset="0.578125" stop-color="white" stop-opacity="0.42"/>
<stop offset="0.723958" stop-color="#FF2D47" stop-opacity="0.58"/>
<stop offset="1" stop-color="#FF2C40" stop-opacity="0"/>
</radialGradient>
<linearGradient id="paint27_linear_6894_5260" x1="15.6516" y1="19.4427" x2="15.8091" y2="16.5061" gradientUnits="userSpaceOnUse">
<stop stop-color="#FF2440"/>
<stop offset="1" stop-color="#FF243F" stop-opacity="0"/>
</linearGradient>
<linearGradient id="paint28_linear_6894_5260" x1="15.8091" y1="19.1461" x2="16.7756" y2="16.7811" gradientUnits="userSpaceOnUse">
<stop stop-color="#FF2641"/>
<stop offset="1" stop-color="#FF243F" stop-opacity="0"/>
</linearGradient>
<radialGradient id="paint29_radial_6894_5260" cx="0" cy="0" r="1" gradientUnits="userSpaceOnUse" gradientTransform="translate(16.3141 15.873) rotate(-86.1859) scale(3.31948 4.43817)">
<stop offset="0.674779" stop-color="#E31C48" stop-opacity="0"/>
<stop offset="1" stop-color="#FA203B"/>
</radialGradient>
<radialGradient id="paint30_radial_6894_5260" cx="0" cy="0" r="1" gradientUnits="userSpaceOnUse" gradientTransform="translate(16.3141 15.873) rotate(-86.1859) scale(3.31948 4.43817)">
<stop offset="0.817708" stop-color="#E31C48" stop-opacity="0"/>
<stop offset="1" stop-color="#E31C48"/>
</radialGradient>
<radialGradient id="paint31_radial_6894_5260" cx="0" cy="0" r="1" gradientUnits="userSpaceOnUse" gradientTransform="translate(16.2405 18.7435) rotate(-89.1987) scale(5.26311 9.14954)">
<stop offset="0.708333" stop-color="#FF277C" stop-opacity="0"/>
<stop offset="0.796875" stop-color="#EA207F" stop-opacity="0.4"/>
<stop offset="0.890625" stop-color="#C01285" stop-opacity="0.88"/>
<stop offset="0.958333" stop-color="#8E028D"/>
</radialGradient>
<linearGradient id="paint32_linear_6894_5260" x1="12.651" y1="10.4025" x2="11.3152" y2="7.63414" gradientUnits="userSpaceOnUse">
<stop offset="0.24955" stop-color="#482641"/>
<stop offset="0.406361" stop-color="#503A4A"/>
<stop offset="0.511203" stop-color="#482641"/>
</linearGradient>
<linearGradient id="paint33_linear_6894_5260" x1="11.7605" y1="8.54087" x2="12.999" y2="6.11245" gradientUnits="userSpaceOnUse">
<stop offset="0.24955" stop-color="#482641"/>
<stop offset="0.406361" stop-color="#503A4A"/>
<stop offset="0.511203" stop-color="#482641"/>
</linearGradient>
<radialGradient id="paint34_radial_6894_5260" cx="0" cy="0" r="1" gradientUnits="userSpaceOnUse" gradientTransform="translate(19.9192 8.0755) rotate(130.344) scale(1.97916 1.61974)">
<stop stop-color="#664D5F"/>
<stop offset="0.690593" stop-color="#482641"/>
<stop offset="1" stop-color="#3E2338"/>
</radialGradient>
</defs>
</svg>
