<svg width="19" height="20" viewBox="0 0 19 20" fill="none" xmlns="http://www.w3.org/2000/svg">
<path d="M11.3359 19.4805C12.0215 19.4805 12.4961 18.9268 12.8213 18.083L18.6221 2.91309C18.7715 2.51758 18.8594 2.1748 18.8594 1.87598C18.8594 1.25195 18.4639 0.856445 17.8311 0.856445C17.541 0.856445 17.1895 0.935547 16.8027 1.08496L1.5625 6.9209C0.806641 7.21094 0.235352 7.68555 0.235352 8.37109C0.235352 9.21484 0.859375 9.53125 1.7207 9.78613L8.06641 11.6494L9.91211 17.9248C10.1758 18.8213 10.4922 19.4805 11.3359 19.4805ZM8.57617 10.0322L3.11816 8.3623C2.98633 8.32715 2.95117 8.2832 2.95117 8.23047C2.95117 8.16895 2.98633 8.11621 3.10059 8.08105L13.5332 4.09082C14.2803 3.80078 15.0098 3.44922 15.8096 3.08008C15.1768 3.58984 14.4033 4.21387 13.876 4.74121L8.57617 10.0322ZM11.4941 16.7734C11.4326 16.7734 11.3887 16.7207 11.3535 16.5977L9.68359 11.1396L14.9746 5.83984C15.4844 5.32129 16.1348 4.52148 16.6445 3.87988C16.2754 4.68848 15.915 5.42676 15.625 6.18262L11.6348 16.6152C11.5908 16.7295 11.5557 16.7734 11.4941 16.7734Z" fill="white"/>
</svg>
