<svg width="15" height="15" viewBox="0 0 15 15" fill="none" xmlns="http://www.w3.org/2000/svg">
<path d="M6.49951 14.324H7.83765C8.38477 14.324 8.81323 13.9812 8.94507 13.4539L9.20874 12.3003L9.38013 12.2344L10.3887 12.8606C10.8501 13.1506 11.3972 13.0715 11.7861 12.6826L12.709 11.7598C13.1045 11.3643 13.1704 10.8237 12.8804 10.3689L12.2542 9.36035L12.3201 9.20215L13.4736 8.93188C13.9944 8.80005 14.3372 8.37158 14.3372 7.82446V6.52588C14.3372 5.97876 14.001 5.55029 13.4736 5.41846L12.3267 5.1416L12.2607 4.97021L12.887 3.96826C13.177 3.51343 13.1111 2.9729 12.7156 2.5708L11.7927 1.64795C11.4104 1.25903 10.8633 1.18652 10.4019 1.46997L9.39331 2.0896L9.20874 2.02368L8.94507 0.863525C8.81323 0.336182 8.38477 0 7.83765 0H6.49951C5.9458 0 5.51733 0.336182 5.39209 0.863525L5.12842 2.02368L4.94385 2.0896L3.9353 1.46997C3.46729 1.18652 2.92676 1.25903 2.54443 1.64795L1.61499 2.5708C1.22607 2.9729 1.15356 3.51343 1.4436 3.96826L2.06982 4.97021L2.00391 5.1416L0.863525 5.41846C0.336182 5.55029 0 5.97876 0 6.52588V7.82446C0 8.37158 0.342773 8.80005 0.863525 8.93188L2.01709 9.20215L2.07642 9.36035L1.4502 10.3689C1.16016 10.8237 1.23267 11.3643 1.62158 11.7598L2.55103 12.6826C2.93335 13.0715 3.48047 13.1506 3.94189 12.8606L4.95044 12.2344L5.12842 12.3003L5.39209 13.4539C5.51733 13.9812 5.9458 14.324 6.49951 14.324ZM6.6709 13.1111C6.55884 13.1111 6.49951 13.0649 6.48633 12.9661L6.09082 11.3445C5.67554 11.2456 5.27344 11.0742 4.95044 10.8699L3.52661 11.7466C3.44092 11.7993 3.36182 11.7927 3.28271 11.7136L2.59058 11.0215C2.51147 10.949 2.51147 10.8699 2.56421 10.7842L3.44092 9.36035C3.25635 9.04395 3.08496 8.64844 2.98608 8.23315L1.35791 7.84424C1.25903 7.83105 1.2063 7.77173 1.2063 7.65967V6.68408C1.2063 6.56543 1.25244 6.51929 1.35791 6.49292L2.97949 6.1106C3.07837 5.66895 3.26953 5.26025 3.43433 4.96362L2.55762 3.55298C2.50488 3.46069 2.50488 3.38159 2.57739 3.30249L3.27612 2.61694C3.35522 2.54443 3.42773 2.53125 3.52661 2.59058L4.93726 3.4541C5.23389 3.26953 5.67554 3.08496 6.09741 2.97949L6.48633 1.35791C6.49951 1.25903 6.55884 1.2063 6.6709 1.2063H7.66626C7.77832 1.2063 7.83105 1.25244 7.85083 1.35791L8.24634 2.98608C8.6748 3.09155 9.06372 3.26953 9.39331 3.4541L10.804 2.59058C10.9028 2.53784 10.9753 2.54443 11.0544 2.62354L11.7532 3.30908C11.8323 3.38159 11.8323 3.46069 11.7729 3.55298L10.9028 4.96362C11.061 5.26025 11.2588 5.66895 11.3577 6.1106L12.9792 6.49292C13.0847 6.51929 13.1243 6.56543 13.1243 6.68408V7.65967C13.1243 7.77173 13.0781 7.83105 12.9792 7.84424L11.3511 8.23315C11.2522 8.64844 11.0742 9.05054 10.8896 9.36035L11.7664 10.7776C11.8191 10.8699 11.8191 10.9424 11.74 11.0149L11.0479 11.7136C10.9688 11.7927 10.8896 11.7993 10.804 11.7466L9.38672 10.8699C9.05713 11.0742 8.6814 11.239 8.24634 11.3445L7.85083 12.9661C7.83105 13.0649 7.77832 13.1111 7.66626 13.1111H6.6709ZM7.17188 9.66357C8.54297 9.66357 9.67017 8.53638 9.67017 7.15869C9.67017 5.79419 8.54297 4.66699 7.17188 4.66699C5.79419 4.66699 4.6604 5.79419 4.6604 7.15869C4.6604 8.53638 5.79419 9.66357 7.17188 9.66357ZM7.17188 8.52319C6.42041 8.52319 5.80737 7.91016 5.80737 7.15869C5.80737 6.42041 6.427 5.80737 7.17188 5.80737C7.90356 5.80737 8.5166 6.42041 8.5166 7.15869C8.5166 7.90356 7.90356 8.52319 7.17188 8.52319Z" fill="#1C1C1E"/>
</svg>
